<svg id="svg" version="1.1" xmlns="http://www.w3.org/2000/svg" xmlns:xlink="http://www.w3.org/1999/xlink" width="200" height="100" viewBox="0, 0, 400,300"><g id="svgg"><path id="path0" d="M242.953 82.657 C 242.500 83.077,241.799 83.421,241.395 83.421 C 240.868 83.421,240.660 83.585,240.660 84.003 C 240.660 84.459,240.416 84.605,239.535 84.678 C 238.708 84.747,238.331 84.950,238.113 85.446 C 237.884 85.969,237.570 86.122,236.723 86.122 C 235.908 86.122,235.592 86.264,235.483 86.681 C 235.387 87.045,234.944 87.314,234.214 87.451 C 233.466 87.591,233.041 87.855,232.940 88.242 C 232.836 88.641,232.526 88.822,231.948 88.822 C 230.829 88.822,230.158 89.101,230.158 89.566 C 230.158 89.777,229.627 90.031,228.967 90.136 C 228.220 90.256,227.656 90.550,227.456 90.925 C 227.280 91.254,226.881 91.523,226.571 91.523 C 225.686 91.523,225.056 91.848,225.056 92.305 C 225.056 92.555,224.743 92.723,224.278 92.723 C 223.752 92.723,223.449 92.918,223.343 93.323 C 223.225 93.775,222.933 93.923,222.164 93.923 C 221.371 93.923,221.067 94.088,220.808 94.658 C 220.558 95.207,220.199 95.415,219.389 95.483 L 218.305 95.574 218.226 108.852 L 218.148 122.131 206.904 122.131 L 195.660 122.131 195.496 122.806 C 195.406 123.177,195.370 129.422,195.416 136.684 L 195.499 149.887 206.827 149.966 L 218.155 150.045 218.155 188.751 C 218.155 227.057,218.161 227.463,218.755 228.057 C 219.280 228.582,219.355 229.061,219.359 231.883 C 219.364 235.483,219.530 236.459,220.140 236.459 C 220.402 236.459,220.555 236.794,220.555 237.369 C 220.555 238.471,221.304 240.360,221.740 240.360 C 221.914 240.360,222.056 240.710,222.056 241.138 C 222.056 241.664,222.250 241.968,222.656 242.074 C 223.108 242.192,223.256 242.483,223.256 243.253 C 223.256 244.068,223.408 244.334,224.006 244.561 C 224.465 244.736,224.756 245.082,224.756 245.454 C 224.756 245.850,224.954 246.062,225.323 246.062 C 225.736 246.062,225.945 246.355,226.093 247.145 C 226.222 247.834,226.497 248.281,226.849 248.373 C 227.153 248.453,227.471 248.785,227.557 249.112 C 227.642 249.439,227.992 249.780,228.335 249.870 C 228.677 249.959,228.957 250.198,228.957 250.399 C 228.957 250.791,230.198 251.463,230.922 251.463 C 231.162 251.463,231.358 251.733,231.358 252.063 C 231.358 252.503,231.558 252.663,232.108 252.663 C 232.647 252.663,232.858 252.825,232.858 253.237 C 232.858 253.671,233.146 253.859,234.046 254.011 C 234.842 254.146,235.294 254.402,235.417 254.788 C 235.560 255.239,235.881 255.364,236.894 255.364 C 237.902 255.364,238.222 255.487,238.335 255.918 C 238.498 256.542,239.685 256.864,241.826 256.864 C 242.891 256.864,243.304 257.004,243.591 257.464 C 243.948 258.036,244.291 258.065,250.743 258.065 C 257.268 258.065,257.526 258.042,257.677 257.464 C 257.817 256.929,258.087 256.864,260.163 256.864 C 263.199 256.864,264.306 256.627,264.527 255.928 C 264.671 255.476,265.001 255.364,266.187 255.364 C 267.253 255.364,267.830 255.201,268.250 254.780 C 268.571 254.460,269.331 254.104,269.939 253.990 C 270.655 253.855,271.097 253.585,271.192 253.223 C 271.283 252.874,271.608 252.663,272.053 252.663 C 272.446 252.663,273.025 252.406,273.339 252.093 C 273.653 251.779,274.177 251.437,274.503 251.334 C 275.183 251.118,275.469 250.045,275.469 247.709 C 275.469 246.384,275.565 246.106,276.069 245.975 C 276.586 245.839,276.669 245.565,276.669 243.989 C 276.669 242.561,276.800 242.029,277.269 241.560 C 277.763 241.067,277.869 240.560,277.869 238.710 C 277.869 236.893,277.958 236.459,278.327 236.459 C 278.976 236.459,279.370 235.208,279.370 233.149 C 279.370 231.686,279.474 231.323,279.970 231.058 C 280.830 230.597,280.899 223.708,280.045 223.495 C 278.917 223.213,276.993 223.607,276.820 224.155 C 276.718 224.474,276.228 224.772,275.617 224.887 C 275.049 224.993,274.480 225.262,274.352 225.485 C 274.223 225.708,273.848 225.940,273.518 226.001 C 273.171 226.066,272.878 226.395,272.822 226.785 C 272.740 227.365,272.545 227.457,271.397 227.457 C 270.268 227.457,270.068 227.547,270.068 228.057 C 270.068 228.582,269.867 228.657,268.462 228.657 C 266.559 228.657,264.966 229.149,264.966 229.737 C 264.966 230.583,252.729 230.331,252.609 229.482 C 252.547 229.048,252.272 228.773,251.838 228.711 C 251.467 228.659,251.163 228.410,251.163 228.158 C 251.163 227.907,250.893 227.630,250.563 227.544 C 250.233 227.457,249.962 227.151,249.962 226.862 C 249.962 226.574,249.692 225.994,249.362 225.575 C 249.032 225.155,248.762 224.457,248.762 224.024 C 248.762 223.022,247.991 221.155,247.577 221.155 C 247.359 221.155,247.262 210.253,247.262 185.596 L 247.262 150.038 260.615 150.038 L 273.968 150.038 273.968 136.084 L 273.968 122.131 260.617 122.131 L 247.266 122.131 247.189 102.101 L 247.112 82.071 245.444 81.982 C 244.006 81.906,243.664 81.999,242.953 82.657 M361.830 82.134 C 361.363 82.205,360.941 82.505,360.834 82.839 C 360.692 83.288,360.373 83.421,359.442 83.421 C 358.486 83.421,358.201 83.546,358.076 84.021 C 357.990 84.353,357.667 84.621,357.354 84.621 C 356.952 84.621,356.789 84.837,356.789 85.371 C 356.789 85.971,356.639 86.122,356.039 86.122 C 355.489 86.122,355.289 86.282,355.289 86.722 C 355.289 87.122,355.089 87.322,354.689 87.322 C 354.252 87.322,354.089 87.522,354.089 88.057 C 354.089 88.461,353.748 89.159,353.332 89.608 L 352.576 90.424 352.657 96.150 C 352.738 101.831,352.743 101.876,353.413 101.971 C 353.986 102.053,354.089 102.251,354.089 103.275 C 354.089 104.230,354.214 104.515,354.689 104.639 C 355.021 104.726,355.289 105.049,355.289 105.361 C 355.289 105.764,355.504 105.926,356.039 105.926 C 356.639 105.926,356.789 106.077,356.789 106.677 C 356.789 107.193,356.954 107.427,357.317 107.427 C 357.608 107.427,358.014 107.697,358.220 108.027 C 358.474 108.434,358.920 108.627,359.606 108.627 C 360.305 108.627,360.748 108.825,361.042 109.268 C 361.936 110.614,370.893 110.318,370.893 108.943 C 370.893 108.768,371.508 108.627,372.271 108.627 C 373.384 108.627,373.679 108.515,373.802 108.044 C 373.886 107.723,374.245 107.419,374.599 107.369 C 375.003 107.311,375.280 107.024,375.340 106.602 C 375.401 106.168,375.643 105.926,376.015 105.926 C 376.394 105.926,376.594 105.719,376.594 105.326 C 376.594 104.989,376.794 104.726,377.051 104.726 C 377.302 104.726,377.672 104.355,377.874 103.901 C 378.075 103.447,378.478 102.814,378.768 102.494 C 379.583 101.594,379.562 90.423,378.744 89.544 C 378.440 89.218,378.100 88.585,377.988 88.137 C 377.851 87.593,377.585 87.322,377.189 87.322 C 376.794 87.322,376.594 87.120,376.594 86.722 C 376.594 86.329,376.394 86.122,376.015 86.122 C 375.643 86.122,375.401 85.880,375.340 85.446 C 375.280 85.024,375.003 84.737,374.599 84.679 C 374.245 84.629,373.886 84.325,373.802 84.004 C 373.683 83.550,373.386 83.421,372.456 83.421 C 371.548 83.421,371.228 83.288,371.118 82.866 C 370.895 82.013,365.442 81.583,361.830 82.134 M359.437 96.099 C 359.409 99.441,359.334 101.608,359.271 100.915 C 359.187 99.991,359.001 99.605,358.573 99.470 C 357.665 99.181,357.680 92.574,358.590 92.336 C 359.049 92.216,359.190 91.927,359.190 91.101 C 359.190 90.508,359.257 90.023,359.340 90.023 C 359.422 90.023,359.466 92.757,359.437 96.099 M373.893 96.002 C 373.893 99.579,373.793 99.770,372.090 99.429 C 370.966 99.204,370.910 98.434,371.943 97.402 C 372.611 96.733,372.693 96.403,372.693 94.377 C 372.693 92.195,372.718 92.115,373.293 92.423 C 373.837 92.714,373.893 93.051,373.893 96.002 M366.392 93.323 C 366.062 93.653,365.521 93.923,365.191 93.923 C 364.791 93.923,364.591 93.723,364.591 93.323 C 364.591 92.823,364.791 92.723,365.791 92.723 L 366.992 92.723 366.392 93.323 M366.082 101.200 C 366.089 101.822,366.239 102.026,366.692 102.026 C 367.092 102.026,367.292 102.226,367.292 102.626 C 367.292 103.138,367.501 103.230,368.717 103.253 C 370.074 103.279,370.098 103.293,369.205 103.552 C 368.689 103.701,368.099 104.027,367.893 104.275 C 367.369 104.906,364.291 104.912,364.291 104.282 C 364.291 104.037,363.987 103.773,363.616 103.693 C 363.245 103.614,362.671 103.492,362.341 103.422 C 362.011 103.353,362.382 103.280,363.166 103.261 L 364.591 103.226 364.591 101.261 L 364.591 99.297 365.332 99.836 C 365.803 100.179,366.076 100.676,366.082 101.200 M79.750 120.030 C 79.405 120.583,79.051 120.630,75.237 120.630 C 71.126 120.630,69.017 121.032,69.017 121.815 C 69.017 122.011,68.041 122.131,66.439 122.131 C 64.112 122.131,63.844 122.189,63.703 122.731 C 63.578 123.208,63.292 123.332,62.306 123.335 C 60.554 123.341,59.763 123.608,59.555 124.263 C 59.414 124.708,59.086 124.831,58.044 124.831 C 56.914 124.831,56.714 124.921,56.714 125.431 C 56.714 125.951,56.514 126.032,55.214 126.032 C 54.095 126.032,53.555 126.190,53.091 126.654 C 52.748 126.997,52.009 127.351,51.449 127.442 C 50.812 127.546,50.362 127.819,50.251 128.170 C 50.141 128.517,49.792 128.732,49.342 128.732 C 48.941 128.732,48.342 129.002,48.012 129.332 C 47.682 129.662,47.162 129.932,46.856 129.932 C 46.550 129.932,45.935 130.270,45.490 130.683 C 45.045 131.095,44.417 131.433,44.096 131.433 C 43.718 131.433,43.511 131.638,43.511 132.012 C 43.511 132.384,43.270 132.626,42.836 132.687 C 42.402 132.749,42.126 133.024,42.065 133.458 C 41.996 133.942,41.767 134.134,41.255 134.134 C 40.862 134.134,40.177 134.471,39.732 134.884 C 39.286 135.296,38.739 135.634,38.516 135.634 C 38.292 135.634,38.110 135.904,38.110 136.234 C 38.110 136.627,37.909 136.834,37.530 136.834 C 37.211 136.834,36.869 137.090,36.769 137.402 C 36.670 137.714,36.324 138.039,35.999 138.124 C 35.649 138.216,35.409 138.534,35.409 138.907 C 35.409 139.344,35.218 139.535,34.781 139.535 C 34.405 139.535,34.089 139.776,33.995 140.135 C 33.909 140.467,33.586 140.735,33.273 140.735 C 32.915 140.735,32.708 140.947,32.708 141.315 C 32.708 141.634,32.438 141.981,32.108 142.086 C 31.778 142.190,31.508 142.537,31.508 142.856 C 31.508 143.225,31.301 143.436,30.940 143.436 C 30.293 143.436,30.008 143.995,30.008 145.261 C 30.008 145.936,29.870 146.137,29.407 146.137 C 29.014 146.137,28.807 146.337,28.807 146.716 C 28.807 147.088,28.566 147.329,28.132 147.391 C 27.571 147.471,27.441 147.702,27.365 148.762 C 27.290 149.793,27.161 150.038,26.689 150.038 C 26.272 150.038,26.107 150.245,26.107 150.767 C 26.107 151.295,25.920 151.523,25.431 151.592 C 24.893 151.668,24.738 151.910,24.665 152.782 C 24.599 153.568,24.409 153.920,23.990 154.030 C 23.539 154.148,23.406 154.445,23.406 155.340 C 23.406 156.252,23.263 156.560,22.731 156.793 C 22.240 157.008,22.031 157.388,21.964 158.184 C 21.899 158.970,21.708 159.321,21.289 159.431 C 20.828 159.552,20.705 159.848,20.705 160.839 C 20.705 161.731,20.531 162.239,20.102 162.593 C 19.610 162.999,19.464 163.596,19.309 165.843 C 19.147 168.179,19.034 168.617,18.561 168.740 C 18.074 168.868,18.005 169.204,18.005 171.430 C 18.005 173.721,17.945 173.989,17.404 174.130 C 16.460 174.377,16.460 204.317,17.404 204.564 C 17.945 204.706,18.005 204.974,18.005 207.265 C 18.005 209.556,18.064 209.824,18.605 209.966 C 19.070 210.087,19.205 210.375,19.205 211.246 C 19.205 213.597,19.556 215.097,20.142 215.250 C 20.607 215.372,20.705 215.687,20.705 217.059 C 20.705 218.334,20.834 218.812,21.260 219.113 C 21.565 219.328,21.911 220.026,22.030 220.663 C 22.175 221.445,22.434 221.871,22.826 221.974 C 23.271 222.090,23.406 222.391,23.406 223.271 C 23.406 224.131,23.547 224.461,23.975 224.596 C 24.332 224.710,24.618 225.176,24.745 225.850 C 24.877 226.554,25.146 226.976,25.526 227.075 C 25.895 227.172,26.107 227.487,26.107 227.942 C 26.107 228.457,26.274 228.657,26.707 228.657 C 27.142 228.657,27.307 228.857,27.307 229.386 C 27.307 229.805,27.625 230.364,28.057 230.704 C 28.470 231.029,28.807 231.563,28.807 231.891 C 28.807 232.236,29.061 232.554,29.407 232.645 C 29.766 232.739,30.008 233.054,30.008 233.430 C 30.008 233.854,30.199 234.059,30.594 234.059 C 31.031 234.059,31.233 234.337,31.385 235.148 C 31.512 235.822,31.791 236.289,32.121 236.376 C 32.413 236.452,32.723 236.782,32.808 237.109 C 32.894 237.436,33.244 237.777,33.586 237.867 C 33.928 237.956,34.209 238.221,34.209 238.454 C 34.209 238.688,34.445 238.966,34.734 239.072 C 35.023 239.178,35.556 239.579,35.920 239.963 C 36.283 240.346,36.925 240.660,37.345 240.660 C 37.960 240.660,38.110 240.806,38.110 241.410 C 38.110 241.960,38.270 242.161,38.710 242.161 C 39.110 242.161,39.310 242.361,39.310 242.761 C 39.310 243.201,39.510 243.361,40.060 243.361 C 40.610 243.361,40.810 243.521,40.810 243.961 C 40.810 244.291,40.946 244.561,41.112 244.561 C 41.278 244.561,41.708 244.899,42.067 245.311 C 42.425 245.724,42.897 246.062,43.115 246.062 C 43.333 246.062,43.781 246.332,44.111 246.662 C 44.441 246.992,45.049 247.262,45.461 247.262 C 45.997 247.262,46.212 247.424,46.212 247.830 C 46.212 248.449,46.767 248.762,47.866 248.762 C 48.308 248.762,48.643 248.986,48.762 249.362 C 48.910 249.828,49.216 249.962,50.133 249.962 C 51.091 249.962,51.313 250.069,51.313 250.531 C 51.313 251.174,51.871 251.463,53.118 251.463 C 53.710 251.463,54.032 251.648,54.164 252.063 C 54.326 252.574,54.618 252.663,56.134 252.663 C 57.681 252.663,57.914 252.738,57.914 253.231 C 57.914 253.884,58.474 254.164,59.781 254.164 C 60.304 254.164,60.862 254.386,61.078 254.681 C 61.363 255.072,62.017 255.227,63.736 255.314 C 65.672 255.412,66.017 255.509,66.017 255.959 C 66.017 256.594,67.109 256.864,69.683 256.864 C 71.019 256.864,71.667 257.017,72.236 257.464 C 72.970 258.042,73.454 258.065,84.937 258.065 C 97.080 258.065,97.824 258.019,97.824 257.282 C 97.824 256.972,98.281 256.864,99.587 256.864 C 102.185 256.864,103.226 256.596,103.226 255.926 C 103.226 255.435,103.468 255.364,105.141 255.364 C 106.782 255.364,107.079 255.281,107.208 254.784 C 107.319 254.361,107.674 254.178,108.519 254.109 C 109.380 254.038,109.754 253.840,109.974 253.338 C 110.205 252.810,110.516 252.663,111.399 252.663 C 112.328 252.663,112.528 252.557,112.528 252.063 C 112.528 251.554,112.728 251.463,113.847 251.463 C 114.861 251.463,115.329 251.291,115.872 250.718 C 116.261 250.308,116.883 249.971,117.254 249.968 C 117.712 249.964,117.929 249.782,117.929 249.401 C 117.929 248.979,118.224 248.792,119.110 248.650 C 119.925 248.520,120.349 248.276,120.480 247.862 C 120.585 247.532,120.916 247.262,121.216 247.262 C 121.515 247.262,121.831 246.992,121.917 246.662 C 122.011 246.303,122.327 246.062,122.703 246.062 C 123.131 246.062,123.331 245.870,123.331 245.461 C 123.331 245.126,123.531 244.861,123.784 244.861 C 124.216 244.861,125.437 243.930,126.766 242.588 C 127.105 242.246,127.618 241.879,127.907 241.773 C 128.196 241.666,128.432 241.388,128.432 241.155 C 128.432 240.921,128.701 240.660,129.031 240.574 C 129.360 240.488,129.717 240.188,129.825 239.909 C 129.932 239.629,130.338 239.082,130.726 238.693 C 131.115 238.305,131.433 237.711,131.433 237.373 C 131.433 236.959,131.628 236.759,132.033 236.759 C 132.465 236.759,132.633 236.559,132.633 236.044 C 132.633 235.581,132.845 235.273,133.233 235.172 C 133.675 235.056,133.833 234.763,133.833 234.059 C 133.833 233.354,133.675 233.061,133.233 232.945 C 132.845 232.844,132.633 232.536,132.633 232.073 C 132.633 231.572,132.463 231.358,132.066 231.358 C 131.653 231.358,131.445 231.065,131.296 230.274 C 131.163 229.561,130.895 229.139,130.513 229.039 C 130.186 228.954,129.932 228.628,129.932 228.294 C 129.932 227.963,129.680 227.635,129.360 227.551 C 129.045 227.469,128.718 227.134,128.632 226.807 C 128.547 226.480,128.197 226.139,127.854 226.049 C 127.502 225.957,127.232 225.641,127.232 225.321 C 127.232 224.967,127.020 224.756,126.665 224.756 C 126.252 224.756,126.043 224.463,125.895 223.673 C 125.761 222.960,125.493 222.537,125.111 222.437 C 124.785 222.352,124.531 222.026,124.531 221.692 C 124.531 221.351,124.276 221.032,123.931 220.942 C 123.601 220.856,123.331 220.553,123.331 220.268 C 123.331 219.984,122.993 219.597,122.581 219.409 C 122.168 219.221,121.830 218.862,121.830 218.611 C 121.830 218.355,121.567 218.155,121.230 218.155 C 120.790 218.155,120.630 217.954,120.630 217.404 C 120.630 216.878,120.467 216.654,120.083 216.654 C 119.700 216.654,119.452 216.316,119.258 215.529 C 118.817 213.745,115.229 213.310,115.229 215.040 C 115.229 215.268,114.959 215.454,114.629 215.454 C 114.229 215.454,114.029 215.654,114.029 216.054 C 114.029 216.447,113.828 216.654,113.449 216.654 C 113.077 216.654,112.836 216.895,112.774 217.329 C 112.712 217.763,112.437 218.039,112.003 218.100 C 111.585 218.160,111.328 218.405,111.328 218.742 C 111.328 219.132,111.017 219.346,110.244 219.491 C 109.531 219.625,109.109 219.893,109.009 220.275 C 108.913 220.644,108.597 220.855,108.142 220.855 C 107.643 220.855,107.427 221.025,107.427 221.417 C 107.427 221.839,107.133 222.026,106.247 222.168 C 105.432 222.298,105.008 222.542,104.876 222.956 C 104.771 223.286,104.434 223.556,104.126 223.556 C 103.818 223.556,103.481 223.826,103.376 224.156 C 103.228 224.622,102.922 224.756,102.005 224.756 C 101.025 224.756,100.825 224.858,100.825 225.356 C 100.825 225.819,100.625 225.956,99.950 225.956 C 98.683 225.956,98.125 226.242,98.125 226.889 C 98.125 227.369,97.897 227.457,96.649 227.457 C 94.924 227.457,94.224 227.672,94.224 228.203 C 94.224 229.271,74.297 229.091,73.956 228.019 C 73.807 227.547,73.471 227.457,71.869 227.457 C 70.117 227.457,69.951 227.401,69.863 226.782 C 69.784 226.220,69.552 226.091,68.492 226.014 C 67.461 225.940,67.217 225.810,67.217 225.339 C 67.217 224.934,67.010 224.756,66.539 224.756 C 66.166 224.756,65.704 224.505,65.512 224.198 C 65.321 223.891,64.766 223.561,64.279 223.463 C 63.729 223.354,63.333 223.053,63.233 222.671 C 63.143 222.327,62.824 222.056,62.510 222.056 C 62.202 222.056,61.718 221.785,61.435 221.455 C 61.152 221.125,60.592 220.855,60.189 220.855 C 59.658 220.855,59.430 220.670,59.361 220.180 C 59.299 219.746,59.024 219.471,58.590 219.409 C 58.156 219.347,57.914 219.106,57.914 218.734 C 57.914 218.362,57.707 218.155,57.335 218.155 C 56.963 218.155,56.722 217.913,56.660 217.479 C 56.598 217.045,56.323 216.770,55.889 216.708 C 55.408 216.640,55.214 216.410,55.214 215.908 C 55.214 214.892,54.912 214.254,54.432 214.254 C 54.202 214.254,54.014 213.971,54.014 213.625 C 54.014 213.249,53.772 212.934,53.413 212.840 C 53.083 212.754,52.813 212.493,52.813 212.261 C 52.813 212.028,52.476 211.710,52.063 211.553 C 51.434 211.314,51.313 211.072,51.313 210.060 C 51.313 209.052,51.213 208.852,50.713 208.852 C 50.252 208.852,50.113 208.652,50.113 207.989 C 50.113 206.358,49.735 205.175,49.167 205.026 C 48.714 204.908,48.612 204.585,48.612 203.263 C 48.612 202.016,48.474 201.527,48.012 201.131 C 47.556 200.740,47.412 200.245,47.412 199.071 C 47.412 196.806,47.121 195.692,46.476 195.488 C 45.600 195.209,45.603 183.370,46.479 183.141 C 47.174 182.960,47.412 181.901,47.412 178.992 C 47.412 177.067,47.481 176.796,48.012 176.657 C 48.497 176.530,48.612 176.248,48.612 175.189 C 48.612 174.257,48.783 173.731,49.200 173.373 C 49.563 173.063,49.864 172.300,49.986 171.382 C 50.132 170.278,50.329 169.856,50.748 169.746 C 51.169 169.636,51.313 169.324,51.313 168.520 C 51.313 167.755,51.445 167.442,51.769 167.442 C 52.020 167.442,52.392 167.072,52.595 166.621 C 52.797 166.169,53.200 165.562,53.488 165.270 C 53.777 164.979,54.014 164.404,54.014 163.991 C 54.014 163.441,54.174 163.241,54.614 163.241 C 55.014 163.241,55.214 163.041,55.214 162.641 C 55.214 162.238,55.414 162.041,55.821 162.041 C 56.193 162.041,56.540 161.750,56.714 161.290 C 56.871 160.878,57.205 160.540,57.457 160.540 C 57.714 160.540,57.914 160.278,57.914 159.940 C 57.914 159.547,58.115 159.340,58.494 159.340 C 58.813 159.340,59.155 159.084,59.255 158.772 C 59.354 158.460,59.700 158.135,60.025 158.050 C 60.375 157.959,60.615 157.640,60.615 157.267 C 60.615 156.808,60.805 156.639,61.319 156.639 C 61.706 156.639,62.256 156.381,62.541 156.066 C 62.827 155.751,63.371 155.415,63.752 155.319 C 64.133 155.224,64.515 154.874,64.602 154.542 C 64.717 154.102,65.011 153.938,65.686 153.938 C 66.287 153.938,66.743 153.728,66.986 153.338 C 67.193 153.008,67.673 152.738,68.054 152.738 C 68.434 152.738,69.059 152.401,69.441 151.988 C 69.988 151.397,70.430 151.238,71.516 151.238 C 72.477 151.238,73.057 151.066,73.432 150.672 C 73.868 150.212,74.524 150.083,76.930 149.981 C 79.271 149.883,79.969 149.750,80.264 149.347 C 80.869 148.519,88.280 148.595,89.122 149.437 C 89.636 149.951,90.123 150.038,92.501 150.038 C 94.955 150.038,95.323 150.108,95.654 150.638 C 95.954 151.118,96.354 151.238,97.656 151.238 C 99.115 151.238,99.293 151.308,99.379 151.913 C 99.459 152.474,99.690 152.604,100.750 152.680 C 101.781 152.755,102.026 152.884,102.026 153.356 C 102.026 153.784,102.233 153.938,102.808 153.938 C 103.284 153.938,103.820 154.231,104.180 154.689 C 104.504 155.101,105.021 155.439,105.328 155.439 C 105.635 155.439,105.972 155.709,106.077 156.039 C 106.181 156.369,106.519 156.639,106.827 156.639 C 107.135 156.639,107.469 156.898,107.569 157.215 C 107.692 157.601,108.144 157.857,108.940 157.992 C 109.839 158.144,110.128 158.332,110.128 158.766 C 110.128 159.140,110.337 159.340,110.728 159.340 C 111.116 159.340,111.328 159.540,111.328 159.907 C 111.328 160.263,111.609 160.546,112.078 160.663 C 112.562 160.785,112.828 161.062,112.828 161.446 C 112.828 161.828,113.030 162.041,113.393 162.041 C 113.706 162.041,114.029 162.309,114.115 162.641 C 114.202 162.971,114.525 163.241,114.834 163.241 C 115.143 163.241,115.627 163.511,115.909 163.841 C 116.192 164.171,116.558 164.441,116.724 164.441 C 116.889 164.441,117.193 164.171,117.399 163.841 C 117.605 163.511,118.092 163.241,118.480 163.241 C 118.922 163.241,119.242 163.027,119.336 162.668 C 119.418 162.354,119.743 162.029,120.058 161.946 C 120.377 161.863,120.630 161.535,120.630 161.203 C 120.630 160.862,120.885 160.543,121.230 160.453 C 121.560 160.367,121.830 160.090,121.830 159.838 C 121.830 159.586,122.100 159.295,122.430 159.190 C 122.844 159.058,123.088 158.634,123.219 157.819 C 123.361 156.933,123.548 156.639,123.969 156.639 C 124.324 156.639,124.531 156.426,124.531 156.060 C 124.531 155.688,124.772 155.446,125.206 155.385 C 125.640 155.323,125.916 155.048,125.977 154.614 C 126.039 154.180,126.280 153.938,126.653 153.938 C 127.025 153.938,127.232 153.731,127.232 153.359 C 127.232 153.040,127.502 152.693,127.832 152.588 C 128.162 152.483,128.432 152.212,128.432 151.985 C 128.432 151.758,128.701 151.383,129.030 151.153 C 129.359 150.923,129.712 150.315,129.815 149.802 C 129.944 149.154,130.196 148.842,130.642 148.779 C 131.042 148.722,131.319 148.433,131.379 148.012 C 131.440 147.578,131.682 147.337,132.054 147.337 C 132.455 147.337,132.633 147.129,132.633 146.659 C 132.633 146.286,132.903 145.812,133.233 145.606 C 134.010 145.121,134.025 143.627,133.261 142.863 C 132.945 142.548,132.641 142.041,132.584 141.738 C 132.526 141.434,132.177 141.052,131.806 140.889 C 131.436 140.726,131.133 140.355,131.133 140.064 C 131.133 139.735,130.906 139.535,130.533 139.535 C 130.124 139.535,129.932 139.335,129.932 138.907 C 129.932 138.534,129.692 138.216,129.342 138.124 C 129.018 138.039,128.671 137.714,128.572 137.402 C 128.473 137.090,128.131 136.834,127.812 136.834 C 127.423 136.834,127.232 136.627,127.232 136.206 C 127.232 135.834,126.991 135.515,126.642 135.423 C 126.317 135.338,125.970 135.014,125.871 134.701 C 125.772 134.389,125.446 134.134,125.146 134.134 C 124.846 134.134,124.533 133.872,124.449 133.553 C 124.351 133.175,123.930 132.904,123.242 132.775 C 122.560 132.647,122.133 132.374,122.036 132.005 C 121.949 131.672,121.624 131.433,121.258 131.433 C 120.830 131.433,120.630 131.242,120.630 130.833 C 120.630 130.499,120.430 130.233,120.180 130.233 C 119.932 130.233,119.456 129.958,119.120 129.623 C 118.785 129.288,118.114 128.934,117.629 128.837 C 117.144 128.740,116.672 128.423,116.580 128.133 C 116.474 127.801,115.984 127.537,115.256 127.421 C 114.442 127.291,114.053 127.057,113.942 126.634 C 113.817 126.155,113.534 126.032,112.556 126.032 C 111.528 126.032,111.328 125.934,111.328 125.431 C 111.328 124.922,111.128 124.831,109.998 124.831 C 108.848 124.831,108.656 124.740,108.573 124.156 C 108.487 123.551,108.285 123.472,106.633 123.392 C 105.097 123.319,104.763 123.206,104.636 122.717 C 104.503 122.211,104.215 122.131,102.539 122.131 C 100.901 122.131,100.572 122.043,100.450 121.576 C 100.255 120.831,99.070 120.630,94.858 120.630 C 91.692 120.630,91.332 120.574,90.992 120.030 C 90.641 119.467,90.293 119.430,85.371 119.430 C 80.450 119.430,80.102 119.467,79.750 120.030 M146.137 188.747 L 146.137 255.364 160.690 255.364 L 175.244 255.364 175.244 188.747 L 175.244 122.131 160.690 122.131 L 146.137 122.131 146.137 188.747 M299.475 188.747 L 299.475 255.364 314.029 255.364 L 328.582 255.364 328.582 189.107 C 328.582 137.974,328.500 122.769,328.222 122.491 C 327.952 122.221,324.308 122.131,313.668 122.131 L 299.475 122.131 299.475 188.747 " stroke="none" fill="#fcfcfc" fill-rule="evenodd"></path><path id="path1" d="M219.442 45.311 C 219.296 45.867,219.032 45.911,215.849 45.911 C 212.413 45.911,211.253 46.172,211.253 46.943 C 211.253 47.255,210.560 47.379,208.378 47.458 C 206.156 47.538,205.421 47.673,205.146 48.049 C 204.891 48.399,204.167 48.572,202.584 48.661 C 200.759 48.764,200.285 48.900,199.841 49.449 C 199.391 50.004,199.001 50.113,197.448 50.113 C 195.845 50.113,195.571 50.194,195.436 50.713 C 195.306 51.208,195.026 51.313,193.838 51.313 C 192.011 51.313,191.448 51.533,191.448 52.245 C 191.448 52.727,191.220 52.813,189.947 52.813 C 188.847 52.813,188.287 52.973,187.847 53.413 C 187.469 53.791,186.847 54.014,186.168 54.014 C 185.351 54.014,185.053 54.155,184.937 54.600 C 184.825 55.026,184.422 55.241,183.464 55.384 C 182.442 55.538,182.146 55.709,182.146 56.148 C 182.146 56.619,181.918 56.714,180.795 56.714 C 179.645 56.714,179.445 56.803,179.445 57.314 C 179.445 57.735,179.243 57.916,178.770 57.919 C 177.500 57.926,176.744 58.274,176.744 58.850 C 176.744 59.319,176.516 59.415,175.394 59.415 C 174.244 59.415,174.044 59.504,174.044 60.015 C 174.044 60.478,173.843 60.615,173.168 60.615 C 171.902 60.615,171.343 60.901,171.343 61.547 C 171.343 61.996,171.123 62.116,170.303 62.116 C 169.571 62.116,169.169 62.293,168.942 62.716 C 168.766 63.046,168.356 63.316,168.031 63.316 C 167.603 63.316,167.442 63.520,167.442 64.066 C 167.442 64.744,167.324 64.816,166.213 64.816 C 165.237 64.816,164.953 64.940,164.828 65.416 C 164.738 65.761,164.419 66.017,164.078 66.017 C 163.740 66.017,163.418 66.271,163.330 66.609 C 163.227 67.001,162.816 67.269,162.119 67.400 C 161.448 67.526,161.009 67.802,160.917 68.158 C 160.825 68.506,160.501 68.717,160.055 68.717 C 159.540 68.717,159.340 68.885,159.340 69.317 C 159.340 69.722,159.140 69.917,158.726 69.917 C 158.388 69.917,157.775 70.255,157.362 70.668 C 156.949 71.080,156.348 71.418,156.025 71.418 C 155.646 71.418,155.439 71.622,155.439 71.997 C 155.439 72.369,155.198 72.611,154.764 72.672 C 154.330 72.734,154.054 73.009,153.993 73.443 C 153.924 73.926,153.695 74.119,153.189 74.119 C 152.459 74.119,150.338 75.875,150.338 76.480 C 150.338 76.666,150.055 76.819,149.709 76.819 C 149.337 76.819,149.018 77.060,148.927 77.409 C 148.842 77.734,148.524 78.079,148.220 78.175 C 147.916 78.271,147.584 78.613,147.482 78.935 C 147.380 79.257,147.035 79.520,146.716 79.520 C 146.337 79.520,146.137 79.727,146.137 80.120 C 146.137 80.529,145.936 80.720,145.508 80.720 C 145.143 80.720,144.818 80.959,144.730 81.293 C 144.648 81.607,144.323 81.932,144.008 82.015 C 143.675 82.102,143.436 82.427,143.436 82.793 C 143.436 83.230,143.245 83.421,142.808 83.421 C 142.442 83.421,142.117 83.660,142.030 83.993 C 141.947 84.308,141.622 84.633,141.308 84.715 C 140.974 84.802,140.735 85.128,140.735 85.493 C 140.735 85.921,140.544 86.122,140.135 86.122 C 139.800 86.122,139.535 86.322,139.535 86.575 C 139.535 86.824,139.265 87.259,138.935 87.541 C 138.605 87.824,138.335 88.228,138.335 88.439 C 138.335 88.650,138.226 88.822,138.093 88.822 C 137.503 88.822,135.616 90.936,135.446 91.789 C 135.316 92.436,135.086 92.723,134.696 92.723 C 134.344 92.723,134.134 92.936,134.134 93.291 C 134.134 93.646,133.853 93.929,133.383 94.047 C 132.919 94.163,132.633 94.448,132.633 94.794 C 132.633 95.102,132.363 95.424,132.033 95.511 C 131.703 95.597,131.433 95.877,131.433 96.132 C 131.433 96.388,131.095 96.934,130.683 97.347 C 130.270 97.760,129.932 98.358,129.932 98.676 C 129.932 99.002,129.671 99.323,129.332 99.412 C 128.791 99.553,128.732 99.821,128.732 102.147 L 128.732 104.726 144.561 104.722 C 160.715 104.718,161.740 104.671,161.740 103.934 C 161.740 103.701,162.078 103.383,162.491 103.226 C 162.903 103.069,163.241 102.744,163.241 102.503 C 163.241 102.263,163.496 101.985,163.809 101.886 C 164.121 101.787,164.446 101.440,164.531 101.115 C 164.622 100.766,164.941 100.525,165.313 100.525 C 165.741 100.525,165.941 100.334,165.941 99.925 C 165.941 99.525,166.142 99.325,166.542 99.325 C 166.879 99.325,167.142 99.125,167.142 98.867 C 167.142 98.616,167.479 98.281,167.892 98.125 C 168.351 97.950,168.642 97.604,168.642 97.232 C 168.642 96.815,168.840 96.624,169.270 96.624 C 169.646 96.624,169.962 96.383,170.056 96.024 C 170.142 95.692,170.465 95.424,170.778 95.424 C 171.180 95.424,171.343 95.208,171.343 94.674 C 171.343 94.013,171.471 93.923,172.421 93.923 C 173.237 93.923,173.537 93.781,173.652 93.340 C 173.736 93.019,174.095 92.716,174.449 92.665 C 174.853 92.608,175.130 92.321,175.190 91.898 C 175.259 91.409,175.487 91.223,176.015 91.223 C 176.544 91.223,176.744 91.058,176.744 90.623 C 176.744 90.134,176.944 90.023,177.823 90.023 C 178.638 90.023,178.938 89.880,179.053 89.439 C 179.137 89.118,179.496 88.815,179.851 88.764 C 180.254 88.707,180.531 88.420,180.591 87.997 C 180.672 87.425,180.871 87.322,181.894 87.322 C 182.850 87.322,183.135 87.196,183.259 86.722 C 183.347 86.383,183.668 86.122,183.995 86.122 C 184.313 86.122,184.911 85.784,185.324 85.371 C 185.736 84.959,186.338 84.621,186.660 84.621 C 187.047 84.621,187.247 84.416,187.247 84.021 C 187.247 83.558,187.447 83.421,188.122 83.421 C 189.389 83.421,189.947 83.135,189.947 82.489 C 189.947 82.024,190.171 81.920,191.176 81.920 C 192.126 81.920,192.438 81.793,192.552 81.356 C 192.665 80.923,193.059 80.757,194.237 80.644 C 195.368 80.535,195.887 80.327,196.199 79.858 C 196.512 79.385,196.932 79.220,197.814 79.220 C 198.754 79.220,199.039 79.093,199.163 78.620 C 199.287 78.146,199.572 78.020,200.513 78.020 C 201.454 78.020,201.740 77.893,201.864 77.419 C 201.980 76.974,202.273 76.819,202.998 76.819 C 204.827 76.819,205.851 76.483,205.851 75.881 C 205.851 75.388,206.095 75.319,207.830 75.319 C 209.556 75.319,209.829 75.242,209.966 74.719 C 210.097 74.215,210.375 74.119,211.700 74.119 C 214.116 74.119,215.154 73.837,215.154 73.181 C 215.154 72.665,215.426 72.618,218.420 72.618 C 221.423 72.618,221.698 72.570,221.841 72.023 C 222.123 70.944,251.463 70.949,251.463 72.028 C 251.463 72.579,251.682 72.618,254.764 72.618 C 257.802 72.618,258.065 72.663,258.065 73.186 C 258.065 73.912,258.628 74.119,260.605 74.119 C 261.943 74.119,262.220 74.214,262.353 74.719 C 262.488 75.236,262.762 75.319,264.347 75.319 C 265.664 75.319,266.232 75.440,266.350 75.748 C 266.538 76.237,268.012 76.819,269.062 76.819 C 269.450 76.819,270.038 77.089,270.368 77.419 C 270.804 77.856,271.368 78.020,272.433 78.020 C 273.646 78.020,273.926 78.123,274.055 78.620 C 274.180 79.094,274.465 79.220,275.421 79.220 C 276.342 79.220,276.671 79.354,276.809 79.788 C 277.012 80.427,277.806 80.710,279.410 80.716 C 280.246 80.719,280.537 80.860,280.657 81.320 C 280.781 81.795,281.066 81.920,282.022 81.920 C 283.045 81.920,283.244 82.023,283.325 82.596 C 283.387 83.030,283.662 83.305,284.096 83.367 C 284.467 83.419,284.771 83.641,284.771 83.860 C 284.771 84.345,285.432 84.621,286.596 84.621 C 287.270 84.621,287.472 84.759,287.472 85.218 C 287.472 85.685,287.741 85.857,288.712 86.013 C 289.561 86.148,289.998 86.386,290.097 86.766 C 290.177 87.072,290.481 87.322,290.773 87.322 C 291.064 87.322,291.370 87.577,291.451 87.889 C 291.554 88.280,291.985 88.522,292.837 88.666 C 293.782 88.826,294.074 89.010,294.074 89.449 C 294.074 89.853,294.285 90.023,294.789 90.023 C 295.252 90.023,295.559 90.234,295.661 90.623 C 295.780 91.080,296.070 91.223,296.875 91.223 C 297.743 91.223,297.950 91.344,298.029 91.898 C 298.090 92.332,298.366 92.607,298.800 92.669 C 299.234 92.731,299.475 92.972,299.475 93.344 C 299.475 93.723,299.682 93.923,300.075 93.923 C 300.473 93.923,300.675 94.124,300.675 94.518 C 300.675 94.895,300.939 95.178,301.397 95.294 C 301.794 95.393,302.186 95.733,302.269 96.049 C 302.357 96.385,302.681 96.624,303.048 96.624 C 303.393 96.624,303.676 96.805,303.676 97.026 C 303.676 97.446,304.889 98.125,305.641 98.125 C 305.880 98.125,306.077 98.395,306.077 98.725 C 306.077 99.125,306.277 99.325,306.677 99.325 C 307.075 99.325,307.277 99.525,307.277 99.919 C 307.277 100.303,307.543 100.580,308.027 100.702 C 308.496 100.820,308.777 101.103,308.777 101.458 C 308.777 101.825,308.989 102.026,309.377 102.026 C 309.777 102.026,309.977 102.226,309.977 102.626 C 309.977 103.061,310.178 103.226,310.707 103.226 C 311.235 103.226,311.463 103.412,311.532 103.901 L 311.628 104.576 327.895 104.654 L 344.162 104.731 344.508 104.085 C 345.047 103.079,344.690 100.515,343.925 99.896 C 343.573 99.611,343.286 99.151,343.286 98.874 C 343.286 98.596,343.023 98.300,342.703 98.216 C 342.382 98.132,342.078 97.773,342.027 97.419 C 341.970 97.015,341.683 96.738,341.260 96.678 C 340.706 96.600,340.585 96.393,340.585 95.525 C 340.585 94.730,340.440 94.430,340.002 94.315 C 339.681 94.231,339.377 93.872,339.327 93.518 C 339.269 93.114,338.982 92.837,338.560 92.777 C 338.126 92.716,337.884 92.474,337.884 92.102 C 337.884 91.723,337.677 91.523,337.284 91.523 C 336.844 91.523,336.684 91.323,336.684 90.773 C 336.684 90.173,336.534 90.023,335.934 90.023 C 335.384 90.023,335.184 89.862,335.184 89.422 C 335.184 89.022,334.984 88.822,334.584 88.822 C 334.141 88.822,333.983 88.622,333.983 88.058 C 333.983 87.628,333.655 86.989,333.233 86.598 C 332.821 86.216,332.483 85.682,332.483 85.412 C 332.483 85.121,332.238 84.921,331.883 84.921 C 331.553 84.921,331.283 84.722,331.283 84.478 C 331.283 84.234,330.945 83.814,330.533 83.543 C 330.120 83.273,329.782 82.865,329.782 82.636 C 329.782 82.408,329.522 82.221,329.203 82.221 C 328.831 82.221,328.590 81.979,328.528 81.545 C 328.466 81.111,328.191 80.836,327.757 80.774 C 327.323 80.713,327.082 80.471,327.082 80.099 C 327.082 79.763,326.876 79.520,326.591 79.520 C 326.321 79.520,325.787 79.182,325.405 78.770 C 325.023 78.357,324.433 78.020,324.095 78.020 C 323.681 78.020,323.481 77.824,323.481 77.419 C 323.481 76.979,323.281 76.819,322.731 76.819 C 322.131 76.819,321.980 76.669,321.980 76.069 C 321.980 75.528,321.819 75.319,321.401 75.319 C 321.082 75.319,320.735 75.049,320.630 74.719 C 320.525 74.389,320.188 74.119,319.881 74.119 C 319.529 74.119,319.286 73.868,319.226 73.443 C 319.164 73.009,318.889 72.734,318.455 72.672 C 318.083 72.620,317.779 72.379,317.779 72.138 C 317.779 71.896,317.543 71.614,317.254 71.510 C 316.965 71.407,316.483 71.068,316.181 70.758 C 315.880 70.447,315.250 70.117,314.782 70.023 C 314.294 69.926,313.868 69.611,313.783 69.285 C 313.672 68.861,313.362 68.717,312.556 68.717 C 311.791 68.717,311.478 68.585,311.478 68.261 C 311.478 68.010,311.152 67.655,310.753 67.474 C 310.354 67.292,309.962 66.890,309.881 66.580 C 309.800 66.270,309.518 66.017,309.255 66.017 C 308.992 66.017,308.507 65.746,308.177 65.416 C 307.847 65.086,307.254 64.816,306.859 64.816 C 306.344 64.816,306.088 64.605,305.953 64.066 C 305.816 63.518,305.564 63.316,305.021 63.316 C 304.561 63.316,304.276 63.145,304.276 62.869 C 304.276 62.582,303.857 62.356,303.102 62.235 C 302.310 62.108,301.880 61.866,301.782 61.490 C 301.683 61.110,301.251 60.870,300.431 60.739 C 299.604 60.607,299.181 60.370,299.079 59.981 C 298.965 59.546,298.655 59.415,297.738 59.415 C 296.810 59.415,296.510 59.286,296.392 58.835 C 296.292 58.452,295.869 58.185,295.149 58.049 C 294.545 57.936,293.922 57.592,293.755 57.279 C 293.545 56.888,293.123 56.714,292.384 56.714 C 291.592 56.714,291.279 56.569,291.169 56.150 C 291.066 55.756,290.660 55.538,289.824 55.425 C 289.165 55.337,288.456 55.033,288.249 54.750 C 288.011 54.424,287.308 54.181,286.330 54.087 C 285.165 53.975,284.744 53.801,284.609 53.376 C 284.470 52.937,284.138 52.813,283.101 52.813 C 281.998 52.813,281.770 52.717,281.770 52.248 C 281.770 51.600,280.999 51.323,279.180 51.317 C 278.194 51.314,277.907 51.190,277.783 50.713 C 277.646 50.190,277.373 50.113,275.682 50.113 C 274.044 50.113,273.716 50.025,273.593 49.558 C 273.417 48.885,272.228 48.612,269.465 48.612 C 267.689 48.612,267.417 48.537,267.280 48.012 C 267.139 47.471,266.871 47.412,264.579 47.412 C 262.357 47.412,262.017 47.342,261.890 46.857 C 261.702 46.135,260.513 45.911,256.862 45.911 C 254.186 45.911,253.920 45.860,253.777 45.311 C 253.622 44.720,253.367 44.711,236.609 44.711 C 219.851 44.711,219.596 44.720,219.442 45.311 " stroke="none" fill="#ec1c24" fill-rule="evenodd"></path><path id="path2" d="" stroke="none" fill="#f4c4100" fill-rule="evenodd"></path><path id="path3" d="" stroke="none" fill="#f4c4100" fill-rule="evenodd"></path><path id="path4" d="" stroke="none" fill="#f4c4100" fill-rule="evenodd"></path></g></svg>